<?xml version="1.0" standalone="no"?>
<!DOCTYPE svg PUBLIC "-//W3C//DTD SVG 20010904//EN"
 "http://www.w3.org/TR/2001/REC-SVG-20010904/DTD/svg10.dtd">
<svg version="1.0" xmlns="http://www.w3.org/2000/svg"
 width="512.000000pt" height="512.000000pt" viewBox="0 0 512.000000 512.000000"
 preserveAspectRatio="xMidYMid meet">
<metadata>
Created by potrace 1.11, written by Peter Selinger 2001-2013
</metadata>
<g transform="translate(0.000000,512.000000) scale(0.100000,-0.100000)"
fill="#000000" stroke="none">
<path d="M1783 4755 c-17 -7 -44 -32 -59 -54 -27 -41 -27 -42 -27 -230 0 -168
2 -193 19 -222 58 -99 197 -105 256 -10 22 34 23 48 25 221 1 163 -1 190 -18
226 -34 71 -120 102 -196 69z"/>
<path d="M1652 3844 c-85 -14 -238 -59 -259 -77 -7 -5 -13 -7 -13 -3 0 8 -142
-68 -200 -107 -276 -186 -471 -492 -518 -812 -9 -62 -9 -305 0 -365 26 -178
104 -367 213 -519 62 -86 190 -215 272 -274 l51 -38 -43 -92 c-58 -123 -78
-209 -81 -340 -5 -242 83 -457 259 -630 112 -110 245 -181 407 -217 81 -18
140 -19 1285 -17 660 2 1216 6 1235 11 220 51 404 149 546 290 113 114 186
224 242 366 26 66 37 104 58 200 11 48 13 275 3 335 -36 226 -136 422 -299
586 -192 193 -418 292 -704 308 -91 4 -121 10 -126 21 -77 155 -138 246 -230
340 -123 127 -292 231 -462 285 -76 24 -98 29 -168 41 -19 3 -44 7 -55 9 -11
2 -42 4 -70 4 l-50 1 -39 73 c-21 39 -60 101 -85 137 -59 83 -200 224 -276
275 -33 22 -62 43 -65 46 -9 9 -146 78 -200 99 -46 18 -158 49 -235 66 -61 13
-311 11 -393 -2z m419 -313 c206 -54 387 -180 510 -354 l49 -71 -74 -27 c-263
-96 -483 -292 -610 -543 -47 -93 -90 -213 -100 -277 -3 -20 -7 -42 -10 -50 -3
-8 -7 -48 -11 -88 -3 -41 -8 -78 -10 -82 -3 -3 -27 -9 -55 -13 -89 -12 -231
-70 -312 -127 -14 -11 -31 -19 -38 -19 -22 0 -136 85 -201 149 -116 117 -188
245 -235 421 -31 115 -28 334 5 450 97 333 362 575 707 645 96 19 287 12 385
-14z m1050 -701 c194 -42 377 -162 494 -325 53 -75 77 -122 116 -231 27 -74
37 -89 71 -112 44 -29 50 -29 224 -17 169 12 307 -24 451 -117 215 -141 342
-373 341 -627 -1 -290 -160 -543 -423 -671 -168 -82 -94 -78 -1385 -79 -959
-1 -1156 2 -1213 14 -100 21 -196 76 -269 154 -239 253 -196 645 92 834 85 55
167 79 300 86 97 5 121 10 147 29 52 37 62 72 58 207 -4 143 7 224 45 326 90
248 281 430 535 513 28 9 70 19 95 22 25 3 47 8 48 9 12 11 201 0 273 -15z"/>
<path d="M82 3774 c-18 -9 -42 -31 -54 -48 -43 -59 -25 -169 34 -205 160 -99
298 -173 334 -178 89 -12 159 52 159 147 0 81 -19 102 -196 204 -170 98 -216
111 -277 80z"/>
<path d="M3492 3780 c-45 -19 -287 -163 -314 -188 -74 -68 -49 -199 45 -237
69 -28 86 -23 252 70 28 15 62 36 77 46 14 11 30 19 35 19 21 1 85 69 97 104
39 116 -80 231 -192 186z"/>
<path d="M360 1972 c-91 -43 -316 -183 -334 -207 -25 -36 -28 -118 -6 -160 22
-40 91 -77 138 -73 50 4 345 171 374 211 45 63 31 158 -28 204 -36 27 -113 40
-144 25z"/>
</g>
</svg>
